<svg width="414" height="545" viewBox="0 0 414 545" fill="none" xmlns="http://www.w3.org/2000/svg">
<path d="M146 395V72.0002H435" stroke="white" stroke-width="2" stroke-dasharray="8.52 8.52"/>
<circle cx="145.242" cy="71.7074" r="7.24228" fill="white"/>
<circle cx="145.242" cy="377.587" r="7.24228" fill="white"/>
<circle cx="145.306" cy="306.17" r="4.24" fill="white"/>
<circle cx="387.236" cy="72.4247" r="4.24" transform="rotate(-180 387.236 72.4247)" fill="white"/>
<circle cx="145.306" cy="237.17" r="4.24" fill="white"/>
<circle cx="318.237" cy="72.014" r="4.24" transform="rotate(-180 318.237 72.014)" fill="white"/>
<circle cx="145.306" cy="168.17" r="4.24" fill="white"/>
<circle cx="249.238" cy="71.6033" r="4.24" transform="rotate(-180 249.238 71.6033)" fill="white"/>
<circle cx="145.306" cy="107.17" r="4.24" fill="white"/>
<circle cx="188.239" cy="71.2402" r="4.24" transform="rotate(-180 188.239 71.2402)" fill="white"/>
<path d="M72.9995 331V7.00018H435" stroke="white" stroke-width="2" stroke-dasharray="8.52 8.52"/>
<circle cx="72.1754" cy="7.24246" r="7.24228" fill="white"/>
<circle cx="72.1754" cy="313.122" r="7.24228" fill="white"/>
<circle cx="72.2395" cy="241.705" r="4.24" fill="white"/>
<circle cx="119.239" cy="8.26777" r="4.24" transform="rotate(90 119.239 8.26777)" fill="white"/>
<circle cx="72.2395" cy="172.705" r="4.24" fill="white"/>
<circle cx="188.236" cy="7.56465" r="4.24" transform="rotate(90 188.236 7.56465)" fill="white"/>
<circle cx="72.2395" cy="103.705" r="4.24" fill="white"/>
<circle cx="257.233" cy="6.86152" r="4.24" transform="rotate(90 257.233 6.86152)" fill="white"/>
<circle cx="72.2395" cy="42.7051" r="4.24" fill="white"/>
<circle cx="318.229" cy="6.23994" r="4.24" transform="rotate(90 318.229 6.23994)" fill="white"/>
<circle cx="394.24" cy="7.26777" r="4.24" transform="rotate(90 394.24 7.26777)" fill="white"/>
<g filter="url(#filter0_d)">
<rect x="29.9998" y="331.465" width="175" height="177" rx="12" fill="#273554"/>
</g>
<rect x="46.9998" y="350.465" width="52.1429" height="54.8996" rx="3" fill="white" fill-opacity="0.26"/>
<rect x="105" y="350.465" width="52.1429" height="54.8996" rx="3" fill="white" fill-opacity="0.55"/>
<rect x="46.9998" y="418.15" width="140" height="6.76844" fill="white"/>
<rect x="46.9998" y="434.695" width="140" height="6.76844" fill="white" fill-opacity="0.78"/>
<rect x="46.9998" y="451.24" width="140" height="6.76844" fill="white" fill-opacity="0.6"/>
<rect x="46.9998" y="467.785" width="106.429" height="6.76844" fill="white" fill-opacity="0.44"/>
<defs>
<filter id="filter0_d" x="-4.08154" y="299.204" width="243.163" height="245.163" filterUnits="userSpaceOnUse" color-interpolation-filters="sRGB">
<feFlood flood-opacity="0" result="BackgroundImageFix"/>
<feColorMatrix in="SourceAlpha" type="matrix" values="0 0 0 0 0 0 0 0 0 0 0 0 0 0 0 0 0 0 127 0"/>
<feOffset dy="1.82"/>
<feGaussianBlur stdDeviation="17.0406"/>
<feColorMatrix type="matrix" values="0 0 0 0 0 0 0 0 0 0 0 0 0 0 0 0 0 0 1 0"/>
<feBlend mode="normal" in2="BackgroundImageFix" result="effect1_dropShadow"/>
<feBlend mode="normal" in="SourceGraphic" in2="effect1_dropShadow" result="shape"/>
</filter>
</defs>
</svg>
