<?xml version="1.0" encoding="utf-8"?>
<!-- Generator: Adobe Illustrator 24.3.0, SVG Export Plug-In . SVG Version: 6.00 Build 0)  -->
<svg version="1.1" id="Слой_1" xmlns="http://www.w3.org/2000/svg" xmlns:xlink="http://www.w3.org/1999/xlink" x="0px" y="0px"
	 viewBox="0 0 200 200" style="enable-background:new 0 0 200 200;" xml:space="preserve">
<style type="text/css">
	.st0{fill:#FFFFFF;}
	.st1{fill:#E25ABC;}
	.st2{fill:#7E5AE2;}
</style>
<g>
	<g>
		<g>
			<path class="st0" d="M119.36,98.48c0.05,5.05-2,10.08-5.58,13.67c-3.53,3.63-8.54,5.82-13.67,5.87
				c-5.12,0.09-10.28-1.93-13.97-5.57c-3.7-3.63-5.86-8.77-5.87-13.97c0.01-5.2,2.18-10.35,5.87-13.97
				c3.69-3.64,8.85-5.66,13.97-5.58c5.13,0.05,10.14,2.24,13.67,5.88C117.36,88.4,119.41,93.43,119.36,98.48z M119.36,98.48
				c-0.01-5.05-2.11-10.03-5.7-13.55c-3.58-3.53-8.58-5.49-13.55-5.4c-4.97,0.06-9.82,2.18-13.25,5.7
				c-3.47,3.48-5.44,8.36-5.4,13.25c-0.04,4.89,1.93,9.76,5.4,13.25c3.42,3.53,8.27,5.65,13.25,5.7c4.97,0.09,9.97-1.87,13.55-5.4
				C117.25,108.51,119.35,103.53,119.36,98.48z"/>
		</g>
		<g>
			<path class="st0" d="M80.87,98.48c1.6-0.14,3.21-0.19,4.81-0.29l4.81-0.17c3.21-0.11,6.42-0.13,9.62-0.14
				c6.42,0.02,12.83,0.12,19.25,0.6c-6.42,0.47-12.83,0.58-19.25,0.6c-3.21-0.02-6.42-0.03-9.62-0.14l-4.81-0.17
				C84.07,98.67,82.47,98.61,80.87,98.48z"/>
		</g>
		<g>
			<path class="st0" d="M100.11,117.73l-0.38-19.48c-0.15-6.39-0.16-12.67-0.21-19.01l0.95,0.48c-0.51,0.44-1.05,1.14-1.48,1.8
				c-0.44,0.69-0.83,1.42-1.16,2.17c-0.67,1.51-1.18,3.11-1.54,4.75c-0.77,3.27-0.99,6.66-1.07,10.04
				c-0.04,3.38,0.14,6.78,0.83,10.1c0.31,1.66,0.77,3.3,1.4,4.87c0.32,0.79,0.69,1.54,1.12,2.27
				C99,116.44,99.48,117.15,100.11,117.73z M100.11,117.73c-1.33-1.09-2.23-2.61-2.97-4.15c-0.73-1.56-1.29-3.19-1.69-4.87
				c-0.81-3.35-1.11-6.8-1.18-10.23c-0.05-3.43,0.2-6.89,0.94-10.28c0.35-1.7,0.86-3.37,1.56-4.98c0.34-0.81,0.76-1.59,1.22-2.35
				c0.49-0.76,0.98-1.45,1.78-2.12l0.95-0.8l-0.01,1.27c-0.05,6.49-0.06,13.04-0.21,19.48L100.11,117.73z"/>
		</g>
		<g>
			<path class="st0" d="M100.11,117.73c-1.87-0.68-3.61-1.74-5.13-3.04c-1.52-1.3-2.89-2.82-3.91-4.56
				c-2.09-3.47-2.98-7.57-3.01-11.6c-0.03-4.03,0.86-8.14,2.87-11.71c1-1.78,2.31-3.39,3.82-4.78c1.52-1.39,3.2-2.55,5.17-3.36
				l0.3,1.13c-4.19,1-8.31,3.14-11.14,6.46c-0.75,0.79-1.3,1.74-1.89,2.65c-0.47,0.98-1,1.94-1.28,3c-0.4,1.02-0.55,2.11-0.75,3.19
				c-0.13,0.53-0.11,1.09-0.15,1.64l-0.1,1.65c0.07,1.1,0.09,2.21,0.24,3.3c0.23,1.07,0.34,2.18,0.75,3.21
				c0.61,2.12,1.72,4.07,3.1,5.79C91.74,114.18,95.79,116.56,100.11,117.73z M100.11,117.73c-4.4-0.9-8.6-3.17-11.59-6.64
				c-1.47-1.74-2.68-3.74-3.38-5.93c-0.45-1.07-0.6-2.21-0.86-3.33c-0.19-1.13-0.24-2.28-0.34-3.42c0.02-2.29,0.19-4.62,0.96-6.81
				c0.29-1.13,0.85-2.15,1.34-3.2c0.62-0.98,1.2-1.99,1.99-2.84c1.49-1.77,3.32-3.25,5.32-4.4c2.01-1.14,4.14-2.01,6.45-2.5
				l0.3,1.13c-1.72,0.69-3.39,1.8-4.81,3.08c-1.43,1.3-2.68,2.8-3.64,4.48c-1.92,3.37-2.82,7.27-2.92,11.19
				c-0.09,3.91,0.69,7.88,2.6,11.31C93.44,113.28,96.48,116.11,100.11,117.73z"/>
		</g>
		<g>
			<path class="st0" d="M100,117.73l-0.38-19.01c-0.15-6.44-0.16-12.99-0.21-19.48l-0.01-1.27l0.95,0.8
				c0.79,0.66,1.28,1.35,1.78,2.12c0.47,0.76,0.88,1.54,1.22,2.35c0.69,1.61,1.21,3.28,1.56,4.98c0.74,3.39,0.99,6.85,0.94,10.28
				c-0.07,3.43-0.37,6.88-1.18,10.23c-0.4,1.67-0.96,3.31-1.69,4.87C102.23,115.11,101.33,116.64,100,117.73z M100,117.73
				c0.63-0.58,1.12-1.28,1.55-2.01c0.43-0.73,0.81-1.49,1.12-2.27c0.64-1.57,1.1-3.2,1.4-4.87c0.69-3.31,0.87-6.71,0.83-10.1
				c-0.08-3.38-0.3-6.77-1.07-10.04c-0.36-1.64-0.87-3.24-1.54-4.75c-0.33-0.76-0.73-1.48-1.16-2.17c-0.43-0.67-0.97-1.36-1.48-1.8
				l0.95-0.48c-0.05,6.34-0.06,12.62-0.21,19.01L100,117.73z"/>
		</g>
		<g>
			<path class="st0" d="M100,117.73c3.64-1.61,6.67-4.45,8.57-7.88c1.91-3.44,2.69-7.4,2.6-11.31c-0.1-3.91-1-7.82-2.92-11.19
				c-0.96-1.68-2.22-3.18-3.64-4.48c-1.42-1.29-3.09-2.39-4.81-3.08l0.3-1.13c2.31,0.49,4.44,1.35,6.45,2.5
				c2,1.15,3.83,2.63,5.32,4.4c0.79,0.85,1.38,1.87,1.99,2.84c0.49,1.05,1.05,2.07,1.34,3.2c0.77,2.2,0.94,4.52,0.96,6.81
				c-0.1,1.14-0.15,2.29-0.34,3.42c-0.26,1.12-0.41,2.26-0.86,3.33c-0.69,2.19-1.91,4.2-3.38,5.93
				C108.6,114.56,104.4,116.83,100,117.73z M100,117.73c4.32-1.17,8.38-3.55,11.12-7.03c1.38-1.72,2.49-3.67,3.1-5.79
				c0.41-1.03,0.52-2.14,0.75-3.21c0.15-1.09,0.17-2.2,0.24-3.3l-0.1-1.65c-0.04-0.55-0.02-1.1-0.15-1.64
				c-0.2-1.08-0.35-2.17-0.75-3.19c-0.28-1.06-0.82-2.02-1.28-3c-0.59-0.91-1.14-1.86-1.89-2.65c-2.82-3.32-6.95-5.47-11.14-6.46
				l0.3-1.13c1.97,0.81,3.65,1.97,5.17,3.36c1.5,1.39,2.81,2.99,3.82,4.78c2.01,3.57,2.9,7.68,2.87,11.71
				c-0.02,4.03-0.91,8.13-3.01,11.6c-1.03,1.74-2.4,3.26-3.91,4.56C103.61,115.99,101.87,117.05,100,117.73z"/>
		</g>
		<g>
			<g>
				<path class="st0" d="M124.69,98.32c0.04,5.15-1.6,10.29-4.63,14.47l-0.11-0.08C122.99,108.59,124.68,103.47,124.69,98.32z"/>
				<path class="st0" d="M107.79,121.88c-4.92,1.66-10.38,1.73-15.37,0.17l0.24-0.74c4.8,1.63,10.13,1.69,15,0.17L107.79,121.88z"/>
				<path class="st0" d="M79.84,113.07c-3.12-4.23-4.85-9.47-4.86-14.74l1.2,0c-0.03,5.02,1.56,10.04,4.52,14.12L79.84,113.07z"/>
				<path class="st0" d="M79.83,83.58c3.09-4.26,7.59-7.44,12.58-8.99l0.24,0.74c-4.8,1.61-9.02,4.79-11.97,8.87L79.83,83.58z"/>
				<path class="st0" d="M107.78,74.76c4.92,1.65,9.24,4.9,12.27,9.08l-0.11,0.08c-3.02-4.15-7.42-7.25-12.28-8.76L107.78,74.76z"/>
			</g>
		</g>
	</g>
	<path class="st1" d="M129.54,53.12c0,2.08,0.31,4.08,0.9,5.97c-8.95-6.13-19.8-9.72-31.47-9.72c-9.3,0-18.07,2.28-25.78,6.31
		c-11.92,6.23-21.3,16.64-26.21,29.29c2.14,3,5.09,5.39,8.53,6.84c-6.66,2.82-11.47,9.11-12.19,16.6c-0.06,0.63-0.1,1.29-0.1,1.95
		c0,0-0.34-0.82-0.8-2.26c-1.89-5.8-5.98-21.69,0.8-34.84c0,2.14,0.33,4.21,0.96,6.15c3.01-9.94,8.45-18.82,15.63-25.97
		c11.23-11.18,26.72-18.09,43.82-18.09c10.45,0,20.3,2.58,28.94,7.14C130.65,45.58,129.54,49.22,129.54,53.12z"/>
	<path class="st2" d="M70.72,145.31c0-2.08-0.31-4.08-0.9-5.97c8.95,6.13,19.8,9.72,31.47,9.72c9.3,0,18.07-2.28,25.78-6.31
		c11.92-6.23,21.3-16.64,26.21-29.29c-2.14-3-5.09-5.39-8.53-6.84c6.66-2.82,11.47-9.11,12.19-16.6c0.06-0.63,0.1-1.29,0.1-1.95
		c0,0,0.34,0.82,0.8,2.26c1.89,5.8,5.98,21.69-0.8,34.84c0-2.14-0.33-4.21-0.96-6.15c-3.01,9.94-8.45,18.82-15.63,25.97
		c-11.23,11.18-26.72,18.09-43.82,18.09c-10.45,0-20.3-2.58-28.94-7.14C69.61,152.85,70.72,149.22,70.72,145.31z"/>
</g>
</svg>
