<svg width="184" height="194" viewBox="0 0 184 194" fill="none" xmlns="http://www.w3.org/2000/svg">
<path d="M121.169 95.8798C121.242 103.549 118.131 111.183 112.71 116.648C107.362 122.168 99.7584 125.484 91.9727 125.575C84.2053 125.702 76.3832 122.642 70.7804 117.103C65.1777 111.602 61.8851 103.786 61.8669 95.8798C61.8851 87.9733 65.1595 80.1579 70.7804 74.6562C76.3832 69.118 84.2053 66.0575 91.9727 66.185C99.7584 66.2761 107.362 69.5917 112.71 75.1116C118.131 80.5769 121.242 88.2101 121.169 95.8798ZM121.169 95.8798C121.151 88.2101 117.967 80.6498 112.528 75.2938C107.089 69.9378 99.5037 66.9683 91.9727 67.0959C84.4235 67.187 77.0745 70.4115 71.8719 75.7493C66.6147 81.0506 63.6133 88.447 63.686 95.8798C63.6133 103.313 66.6147 110.709 71.8719 116.01C77.0563 121.366 84.4235 124.591 91.9727 124.664C99.5037 124.791 107.089 121.822 112.528 116.466C117.967 111.11 121.151 103.549 121.169 95.8798Z" fill="white"/>
<path d="M62.7764 95.8801C67.6333 95.4975 72.5084 95.3336 77.3654 95.1878C82.2223 95.0239 87.0975 95.0057 91.9544 94.9692C96.8114 94.9875 101.687 95.0057 106.543 95.1878L113.838 95.4429C116.276 95.5886 118.695 95.6797 121.132 95.8983C118.695 96.0987 116.276 96.1898 113.838 96.3538L106.543 96.6088C101.687 96.7728 96.8114 96.791 91.9544 96.8274C87.0975 96.8092 82.2223 96.7728 77.3654 96.6088C72.5084 96.4266 67.6515 96.2627 62.7764 95.8801Z" fill="white"/>
<path d="M91.9727 125.119L91.3906 95.5336C91.1724 85.8236 91.1542 76.2775 91.0632 66.6586L92.5003 67.3873C90.8631 68.8812 89.4806 71.1766 88.4801 73.4356C87.4614 75.731 86.6792 78.1722 86.1517 80.6498C84.9875 85.6232 84.6419 90.7606 84.5327 95.898C84.4599 101.035 84.7328 106.209 85.7879 111.237C86.2608 113.77 86.9521 116.247 87.9162 118.634C88.9167 120.966 90.0991 123.316 91.9727 125.119ZM91.9727 125.119C89.9536 123.461 88.5893 121.148 87.4614 118.816C86.3518 116.448 85.4968 113.97 84.8965 111.419C83.6595 106.337 83.2048 101.09 83.1138 95.8798C83.0411 90.6695 83.4231 85.4046 84.5327 80.2672C85.0602 77.6985 85.8424 75.1481 86.8975 72.7069C87.425 71.4863 88.0435 70.2839 88.753 69.1362C89.4988 67.9885 90.2446 66.9319 91.4452 65.9299L92.9005 64.7275L92.8823 66.6586C92.7913 76.5144 92.7731 86.443 92.5549 96.2441L91.9727 125.119Z" fill="white"/>
<path d="M91.9727 125.119C89.135 124.099 86.4973 122.478 84.1871 120.51C81.8768 118.524 79.8031 116.229 78.2569 113.588C75.0735 108.323 73.7274 102.092 73.691 95.971C73.6546 89.8499 75.0007 83.6012 78.0386 78.1724C79.5666 75.4579 81.5494 73.0167 83.8233 70.9217C86.1335 68.8085 88.6802 67.0596 91.6635 65.8208L92.1183 67.5332C85.7697 69.0453 79.512 72.3063 75.2372 77.3526C74.0912 78.5549 73.2544 79.9941 72.3631 81.3787C71.6536 82.8725 70.835 84.3299 70.4166 85.9331C69.8163 87.4816 69.5799 89.1394 69.2706 90.779C69.0705 91.5988 69.1069 92.4368 69.0341 93.2748L68.8886 95.7706C68.9978 97.4284 69.0159 99.1227 69.2524 100.78C69.5981 102.42 69.7618 104.096 70.3803 105.663C71.308 108.887 72.9997 111.857 75.0917 114.462C79.2756 119.727 85.4241 123.334 91.9727 125.119ZM91.9727 125.119C85.3149 123.753 78.9299 120.31 74.3822 115.027C72.1448 112.385 70.3075 109.343 69.2524 106.009C68.5794 104.388 68.3429 102.657 67.9427 100.963C67.6516 99.2502 67.5789 97.5013 67.4333 95.7706C67.4697 92.291 67.7244 88.7568 68.8886 85.423C69.3252 83.7105 70.1802 82.162 70.926 80.5589C71.8719 79.065 72.7451 77.5347 73.9457 76.2413C78.5297 70.8488 84.9147 67.2964 91.809 65.7661L92.2638 67.4786C86.9703 69.6647 82.3862 73.9276 79.4393 78.9739C76.5287 84.0931 75.1644 90.0138 75.0189 95.971C74.8916 101.91 76.074 107.94 78.9663 113.15C81.8587 118.361 86.4609 122.66 91.9727 125.119Z" fill="white"/>
<path d="M91.8091 125.119L91.227 96.2441C91.0087 86.4612 90.9905 76.5144 90.8995 66.6586L90.8813 64.7275L92.3366 65.9299C93.5372 66.9319 94.283 67.9885 95.0289 69.1362C95.7383 70.2839 96.3568 71.4681 96.8843 72.7069C97.9394 75.1481 98.7216 77.6985 99.2491 80.2672C100.359 85.4228 100.759 90.6695 100.668 95.8798C100.559 101.09 100.104 106.337 98.8853 111.419C98.285 113.952 97.43 116.448 96.3204 118.816C95.1926 121.148 93.8101 123.461 91.8091 125.119ZM91.8091 125.119C93.6827 123.316 94.8651 120.966 95.8656 118.615C96.8297 116.229 97.521 113.751 97.994 111.219C99.049 106.191 99.3219 101.017 99.2491 95.8798C99.14 90.7424 98.7943 85.5868 97.6301 80.6316C97.0844 78.1357 96.3204 75.7128 95.3017 73.4174C94.3012 71.1584 92.9187 68.863 91.2815 67.3691L92.7186 66.6404C92.6459 76.2593 92.6277 85.8054 92.3912 95.5154L91.8091 125.119Z" fill="white"/>
<path d="M91.8091 125.119C97.3209 122.66 101.941 118.361 104.816 113.15C107.708 107.94 108.89 101.91 108.763 95.971C108.617 90.0321 107.235 84.0931 104.343 78.9739C101.396 73.9458 96.8116 69.6647 91.5181 67.4786L91.9728 65.7661C98.8672 67.2964 105.252 70.8488 109.836 76.2413C111.037 77.5347 111.928 79.0832 112.856 80.5589C113.602 82.162 114.457 83.7105 114.893 85.423C116.057 88.7568 116.312 92.291 116.349 95.7706C116.203 97.5013 116.13 99.2502 115.839 100.963C115.439 102.657 115.202 104.406 114.529 106.009C113.474 109.343 111.637 112.385 109.4 115.027C104.852 120.31 98.467 123.753 91.8091 125.119ZM91.8091 125.119C98.3578 123.334 104.506 119.727 108.672 114.444C110.764 111.839 112.456 108.869 113.383 105.645C114.002 104.078 114.166 102.402 114.511 100.762C114.748 99.1045 114.766 97.4284 114.875 95.7524L114.73 93.2566C114.657 92.4186 114.693 91.5806 114.493 90.7608C114.184 89.1212 113.966 87.4634 113.347 85.9149C112.929 84.2935 112.11 82.8543 111.401 81.3604C110.509 79.9759 109.672 78.5367 108.526 77.3343C104.252 72.288 97.994 69.0271 91.6454 67.515L92.1002 65.8025C95.1017 67.0414 97.6302 68.7902 99.9404 70.9035C102.214 73.0167 104.215 75.4579 105.725 78.1541C108.763 83.583 110.127 89.8134 110.073 95.9528C110.036 102.074 108.69 108.304 105.507 113.569C103.942 116.211 101.869 118.524 99.5766 120.492C97.2664 122.478 94.6469 124.081 91.8091 125.119Z" fill="white"/>
<path d="M129.246 95.6426C129.3 103.458 126.808 111.273 122.224 117.631L122.06 117.504C126.681 111.237 129.227 103.458 129.246 95.6426Z" fill="white"/>
<path d="M103.615 131.423C96.1567 133.955 87.8799 134.046 80.3125 131.678L80.6763 130.566C87.9526 133.044 96.0293 133.135 103.415 130.821L103.615 131.423Z" fill="white"/>
<path d="M61.2303 118.051C56.5007 111.62 53.8812 103.659 53.863 95.6611H55.6821C55.6275 103.294 58.0469 110.909 62.5401 117.103L61.2303 118.051Z" fill="white"/>
<path d="M61.2122 73.2534C65.9054 66.7862 72.7269 61.9585 80.2943 59.6084L80.6581 60.7379C73.3636 63.1973 66.9786 68.025 62.5037 74.219L61.2122 73.2534Z" fill="white"/>
<path d="M103.597 59.8452C111.073 62.3593 117.622 67.2962 122.206 73.636L122.042 73.7635C117.458 67.4602 110.8 62.76 103.415 60.4646L103.597 59.8452Z" fill="white"/>
<path d="M136.613 26.9804C136.613 30.1502 137.086 33.1744 137.977 36.0528C124.407 26.7435 107.944 21.2782 90.2442 21.2782C76.1282 21.2782 62.8489 24.7396 51.1522 30.8607C33.0705 40.3157 18.8453 56.1287 11.4053 75.3483C14.6614 79.9027 19.1364 83.528 24.3389 85.7506C14.243 90.0317 6.93033 99.5778 5.85708 110.964C5.76612 111.929 5.71155 112.913 5.71155 113.915C5.71155 113.915 5.20221 112.658 4.49276 110.49C1.61862 101.691 -4.58445 77.5344 5.71155 57.5678C5.71155 60.8288 6.22089 63.9622 7.16681 66.9135C11.7327 51.8293 19.9913 38.33 30.8694 27.4723C47.896 10.4934 71.3804 0 97.3204 0C113.183 0 128.117 3.9168 141.215 10.8395C138.286 15.5215 136.613 21.0596 136.613 26.9804Z" fill="#E25ABC"/>
<path d="M47.3869 167.02C47.3869 163.85 46.914 160.826 46.0226 157.947C59.593 167.257 76.0557 172.722 93.7553 172.722C107.871 172.722 121.151 169.26 132.847 163.139C150.929 153.684 165.154 137.871 172.594 118.652C169.338 114.097 164.863 110.472 159.661 108.249C169.756 103.968 177.069 94.4223 178.142 83.0362C178.233 82.0707 178.288 81.0869 178.288 80.085C178.288 80.085 178.797 81.342 179.507 83.5099C182.381 92.3272 188.566 116.466 178.288 136.432C178.288 133.171 177.779 130.038 176.833 127.087C172.267 142.171 164.008 155.67 153.13 166.528C136.104 183.507 112.601 194 86.6791 194C70.8167 194 55.882 190.083 42.7847 183.161C45.7134 178.479 47.3869 172.94 47.3869 167.02Z" fill="#7E5AE2"/>
</svg>
