<svg width="728" height="1001" viewBox="0 0 728 1001" fill="none" xmlns="http://www.w3.org/2000/svg">
<circle cx="500" cy="500.521" r="498.5" stroke="white" stroke-opacity="0.8" stroke-width="3"/>
<path d="M877.5 500.021C877.5 708.784 708.264 878.021 499.5 878.021C290.736 878.021 121.5 708.784 121.5 500.021C121.5 291.257 290.736 122.021 499.5 122.021C708.264 122.021 877.5 291.257 877.5 500.021Z" stroke="white" stroke-opacity="0.8" stroke-width="3"/>
<circle cx="499.5" cy="500.021" r="267" stroke="white" stroke-opacity="0.8" stroke-width="3"/>
<path d="M687.5 500.521C687.5 604.074 603.553 688.021 500 688.021C396.447 688.021 312.5 604.074 312.5 500.521C312.5 396.967 396.447 313.021 500 313.021C603.553 313.021 687.5 396.967 687.5 500.521Z" stroke="white" stroke-opacity="0.8" stroke-width="3"/>
</svg>
