<svg width="1251" height="762" viewBox="0 0 1251 762" fill="none" xmlns="http://www.w3.org/2000/svg">
<path d="M60 560.568C60 577.137 46.5685 590.568 30 590.568C13.4315 590.568 0 577.137 0 560.568C0 544 13.4315 530.568 30 530.568C46.5685 530.568 60 544 60 560.568ZM5.46465 560.568C5.46465 574.119 16.4495 585.104 30 585.104C43.5505 585.104 54.5353 574.119 54.5353 560.568C54.5353 547.018 43.5505 536.033 30 536.033C16.4495 536.033 5.46465 547.018 5.46465 560.568Z" fill="#E25ABC"/>
<path d="M147 30.5684C147 47.1369 133.569 60.5684 117 60.5684C100.431 60.5684 87 47.1369 87 30.5684C87 13.9998 100.431 0.568359 117 0.568359C133.569 0.568359 147 13.9998 147 30.5684ZM92.4647 30.5684C92.4647 44.1189 103.45 55.1037 117 55.1037C130.55 55.1037 141.535 44.1189 141.535 30.5684C141.535 17.0179 130.55 6.03301 117 6.03301C103.45 6.03301 92.4647 17.0179 92.4647 30.5684Z" fill="#E25ABC"/>
<path d="M683 144.068C683 157.047 672.479 167.568 659.5 167.568C646.521 167.568 636 157.047 636 144.068C636 131.09 646.521 120.568 659.5 120.568C672.479 120.568 683 131.09 683 144.068ZM640.281 144.068C640.281 154.683 648.885 163.288 659.5 163.288C670.115 163.288 678.719 154.683 678.719 144.068C678.719 133.454 670.115 124.849 659.5 124.849C648.885 124.849 640.281 133.454 640.281 144.068Z" fill="#E25ABC"/>
<path d="M492 738.068C492 751.047 481.479 761.568 468.5 761.568C455.521 761.568 445 751.047 445 738.068C445 725.09 455.521 714.568 468.5 714.568C481.479 714.568 492 725.09 492 738.068ZM449.281 738.068C449.281 748.683 457.885 757.288 468.5 757.288C479.115 757.288 487.719 748.683 487.719 738.068C487.719 727.454 479.115 718.849 468.5 718.849C457.885 718.849 449.281 727.454 449.281 738.068Z" fill="#E25ABC"/>
</svg>
