<svg width="1202" height="398" viewBox="0 0 1202 398" fill="none" xmlns="http://www.w3.org/2000/svg">
<path d="M60 77C60 93.5685 46.5685 107 30 107C13.4315 107 0 93.5685 0 77C0 60.4315 13.4315 47 30 47C46.5685 47 60 60.4315 60 77ZM5.46465 77C5.46465 90.5505 16.4495 101.535 30 101.535C43.5505 101.535 54.5353 90.5505 54.5353 77C54.5353 63.4495 43.5505 52.4647 30 52.4647C16.4495 52.4647 5.46465 63.4495 5.46465 77Z" fill="#E25ABC"/>
<path d="M914 23.5C914 36.4787 903.479 47 890.5 47C877.521 47 867 36.4787 867 23.5C867 10.5213 877.521 0 890.5 0C903.479 0 914 10.5213 914 23.5ZM871.281 23.5C871.281 34.1146 879.885 42.7194 890.5 42.7194C901.115 42.7194 909.719 34.1146 909.719 23.5C909.719 12.8854 901.115 4.28065 890.5 4.28065C879.885 4.28065 871.281 12.8854 871.281 23.5Z" fill="#E25ABC"/>
<g style="mix-blend-mode:hard-light">
<path d="M1202 368C1202 384.569 1188.57 398 1172 398C1155.43 398 1142 384.569 1142 368C1142 351.431 1155.43 338 1172 338C1188.57 338 1202 351.431 1202 368ZM1146.07 368C1146.07 382.319 1157.68 393.927 1172 393.927C1186.32 393.927 1197.93 382.319 1197.93 368C1197.93 353.681 1186.32 342.073 1172 342.073C1157.68 342.073 1146.07 353.681 1146.07 368Z" fill="#E25ABC"/>
</g>
</svg>
