<svg width="522" height="632" viewBox="0 0 522 632" fill="none" xmlns="http://www.w3.org/2000/svg">
<g filter="url(#filter0_d)">
<rect x="103.163" y="77.7311" width="340.813" height="477.138" rx="12" fill="#273554"/>
</g>
<path d="M150.668 482.157V158.811H380.291" stroke="white" stroke-width="2" stroke-dasharray="8.52 8.52"/>
<circle cx="150.242" cy="158.811" r="7.24228" fill="white"/>
<circle cx="150.242" cy="464.69" r="7.24228" fill="white"/>
<circle cx="150.307" cy="393.273" r="4.24" fill="white"/>
<circle cx="150.307" cy="324.273" r="4.24" fill="white"/>
<circle cx="150.307" cy="255.273" r="4.24" fill="white"/>
<circle cx="150.307" cy="194.273" r="4.24" fill="white"/>
<rect x="120" y="112.568" width="308" height="138" rx="8" fill="white" fill-opacity="0.7"/>
<rect x="120" y="264.568" width="308" height="58" rx="8" fill="#E5E6E8"/>
<rect x="120" y="340.568" width="308" height="58" rx="8" fill="#E5E6E8"/>
<rect x="120" y="416.568" width="308" height="58" rx="8" fill="#E5E6E8"/>
<g filter="url(#filter1_d)">
<rect x="35" y="418.568" width="175" height="177" rx="12" fill="#273554"/>
</g>
<path d="M77.6017 417.692V94.3457H307.224" stroke="white" stroke-width="2" stroke-dasharray="8.52 8.52"/>
<circle cx="77.1756" cy="94.3457" r="7.24228" fill="white"/>
<circle cx="77.1757" cy="400.225" r="7.24228" fill="white"/>
<circle cx="77.24" cy="328.808" r="4.24" fill="white"/>
<circle cx="77.24" cy="259.808" r="4.24" fill="white"/>
<circle cx="77.24" cy="190.808" r="4.24" fill="white"/>
<circle cx="77.24" cy="129.808" r="4.24" fill="white"/>
<rect x="52" y="437.568" width="52.1429" height="54.8996" rx="3" fill="white" fill-opacity="0.26"/>
<rect x="110" y="437.568" width="52.1429" height="54.8996" rx="3" fill="white" fill-opacity="0.55"/>
<rect x="52" y="505.253" width="140" height="6.76844" fill="white"/>
<rect x="51.9999" y="521.798" width="140" height="6.76844" fill="white" fill-opacity="0.78"/>
<rect x="51.9999" y="538.343" width="140" height="6.76844" fill="white" fill-opacity="0.6"/>
<rect x="51.9999" y="554.888" width="106.429" height="6.76844" fill="white" fill-opacity="0.44"/>
<g filter="url(#filter2_d)">
<rect x="307.65" y="9.56836" width="204.488" height="272.65" rx="12" fill="#273554"/>
<rect x="319" y="23.5684" width="181" height="163" rx="6" fill="#868E9F"/>
<rect x="319" y="197.568" width="182" height="12" fill="#CFD3D9"/>
<rect x="319" y="218.568" width="182" height="12" fill="white"/>
<rect x="319" y="239.568" width="121" height="12" fill="#273554"/>
</g>
<defs>
<filter id="filter0_d" x="83.1626" y="67.8111" width="380.813" height="517.138" filterUnits="userSpaceOnUse" color-interpolation-filters="sRGB">
<feFlood flood-opacity="0" result="BackgroundImageFix"/>
<feColorMatrix in="SourceAlpha" type="matrix" values="0 0 0 0 0 0 0 0 0 0 0 0 0 0 0 0 0 0 127 0"/>
<feOffset dy="10.08"/>
<feGaussianBlur stdDeviation="10"/>
<feColorMatrix type="matrix" values="0 0 0 0 0 0 0 0 0 0 0 0 0 0 0 0 0 0 1 0"/>
<feBlend mode="normal" in2="BackgroundImageFix" result="effect1_dropShadow"/>
<feBlend mode="normal" in="SourceGraphic" in2="effect1_dropShadow" result="shape"/>
</filter>
<filter id="filter1_d" x="0.918701" y="386.307" width="243.163" height="245.163" filterUnits="userSpaceOnUse" color-interpolation-filters="sRGB">
<feFlood flood-opacity="0" result="BackgroundImageFix"/>
<feColorMatrix in="SourceAlpha" type="matrix" values="0 0 0 0 0 0 0 0 0 0 0 0 0 0 0 0 0 0 127 0"/>
<feOffset dy="1.82"/>
<feGaussianBlur stdDeviation="17.0406"/>
<feColorMatrix type="matrix" values="0 0 0 0 0 0 0 0 0 0 0 0 0 0 0 0 0 0 1 0"/>
<feBlend mode="normal" in2="BackgroundImageFix" result="effect1_dropShadow"/>
<feBlend mode="normal" in="SourceGraphic" in2="effect1_dropShadow" result="shape"/>
</filter>
<filter id="filter2_d" x="276.65" y="0.568359" width="244.488" height="312.65" filterUnits="userSpaceOnUse" color-interpolation-filters="sRGB">
<feFlood flood-opacity="0" result="BackgroundImageFix"/>
<feColorMatrix in="SourceAlpha" type="matrix" values="0 0 0 0 0 0 0 0 0 0 0 0 0 0 0 0 0 0 127 0"/>
<feOffset dx="-11" dy="11"/>
<feGaussianBlur stdDeviation="10"/>
<feColorMatrix type="matrix" values="0 0 0 0 0 0 0 0 0 0 0 0 0 0 0 0 0 0 1 0"/>
<feBlend mode="normal" in2="BackgroundImageFix" result="effect1_dropShadow"/>
<feBlend mode="normal" in="SourceGraphic" in2="effect1_dropShadow" result="shape"/>
</filter>
</defs>
</svg>
